<?xml version="1.0" standalone="no"?><!DOCTYPE svg PUBLIC "-//W3C//DTD SVG 1.1//EN" "http://www.w3.org/Graphics/SVG/1.1/DTD/svg11.dtd"><svg t="1624376261498" class="icon" viewBox="0 0 1024 1024" version="1.1" xmlns="http://www.w3.org/2000/svg" p-id="6418" xmlns:xlink="http://www.w3.org/1999/xlink" width="200" height="200"><defs><style type="text/css"></style></defs><path d="M956.767677 77.575758c-36.20202 0-108.606061 18.10101-175.838384 18.10101h-23.272727C672.323232 87.919192 558.545455 0 416.323232 0c-72.40404 0-144.808081 23.272727-199.111111 56.888889-7.757576-10.343434-18.10101-15.515152-31.030303-15.515152-25.858586 0-43.959596 20.686869-43.959596 43.959596V933.494949h-51.717171c-25.858586 0-43.959596 20.686869-43.959596 43.959596 0 25.858586 20.686869 43.959596 43.959596 43.959596h186.181818c25.858586 0 43.959596-20.686869 43.959596-43.959596 0-25.858586-20.686869-43.959596-43.959596-43.959596H230.141414V602.505051c43.959596-10.343434 98.262626-18.10101 149.979798-18.101011h18.10101c165.494949 7.757576 276.686869 85.333333 369.777778 93.090909h18.10101c100.848485 0 191.353535-85.333333 191.353535-111.191919V87.919192c0-7.757576-7.757576-10.343434-20.686868-10.343434z m-67.232323 468.040404c-18.10101 18.10101-59.474747 46.545455-103.434344 46.545454h-7.757576c-25.858586-2.585859-62.060606-15.515152-103.434343-31.030303-72.40404-25.858586-160.323232-59.474747-271.515152-64.646465h-23.272727c-56.888889 0-111.191919 7.757576-149.979798 15.515152V160.323232c15.515152-23.272727 95.676768-69.818182 186.181818-69.818181 64.646465 0 126.707071 25.858586 186.181819 49.131313 51.717172 20.686869 98.262626 41.373737 149.979797 43.959596h28.444445c36.20202 0 74.989899-5.171717 108.606061-10.343435v372.363637z" fill="#d81e06" p-id="6419"></path></svg>